# This file uses centimeters as units for non-parametric coordinates.

v 0.023336 -0.000363 -0.015635
v 0.008970 -0.000363 -0.022069
v -0.005395 -0.000363 -0.015635
v -0.011345 -0.000363 -0.000104
v -0.005395 -0.000363 0.015427
v 0.008970 -0.000363 0.021860
v 0.023336 -0.000363 0.015427
v 0.029286 -0.000363 -0.000104
v 0.040170 0.215646 -0.007977
v 0.032889 0.215646 -0.011237
v 0.025607 0.215646 -0.007977
v 0.022591 0.215646 -0.000104
v 0.025607 0.215646 0.007768
v 0.032889 0.215646 0.011029
v 0.040170 0.215646 0.007768
v 0.043186 0.215646 -0.000104
v 0.014340 0.055262 -0.012861
v 0.019228 0.055262 -0.000104
v 0.014340 0.055262 0.012652
v 0.002541 0.055262 0.017936
v -0.009258 0.055262 0.012652
v -0.014145 0.055262 -0.000104
v -0.009258 0.055262 -0.012861
v 0.002541 0.055262 -0.018145
v 0.023622 0.158885 -0.010029
v 0.040268 0.109692 -0.011187
v 0.044514 0.109692 -0.000104
v 0.027425 0.158885 -0.000104
v 0.040268 0.109692 0.010978
v 0.023622 0.158885 0.009821
v 0.029661 0.108520 0.015617
v 0.014430 0.159092 0.013921
v 0.020108 0.110725 0.010948
v 0.005253 0.159251 0.009807
v 0.015874 0.110725 -0.000104
v 0.001455 0.159263 -0.000104
v 0.020108 0.110725 -0.011156
v 0.005253 0.159251 -0.010016
v 0.029661 0.108520 -0.015826
v 0.014430 0.159092 -0.014129
v 0.050789 0.214896 -0.016891
v 0.035200 0.216743 -0.023953
v 0.020181 0.231538 -0.016575
v 0.010595 0.216181 0.001883
v 0.015834 0.210288 0.017565
v 0.036436 0.229372 0.024358
v 0.049832 0.207888 0.017663
v 0.059825 0.220088 0.001080
v 0.063458 0.198943 -0.031061
v 0.032692 0.205108 -0.044731
v 0.002552 0.217018 -0.030940
v -0.012167 0.211478 0.000873
v 0.000731 0.208254 0.032144
v 0.032330 0.205066 0.045946
v 0.063748 0.199206 0.032964
v 0.079728 0.206652 0.000897
v 0.072154 0.239426 -0.032073
v 0.039037 0.234601 -0.049050
v 0.009731 0.250575 -0.031480
v -0.009775 0.240230 0.001559
v 0.007154 0.248020 0.034372
v 0.041479 0.251624 0.044416
v 0.074189 0.243766 0.032219
v 0.088000 0.233013 -0.000158
v 0.061621 0.250689 -0.017578
v 0.042103 0.253912 -0.027222
v 0.023547 0.258515 -0.017694
v 0.010148 0.262188 0.002811
v 0.019349 0.262763 0.024577
v 0.042071 0.259286 0.031569
v 0.061954 0.251500 0.020781
v 0.072177 0.249138 0.002345
v 0.033883 0.215116 0.000209
v 0.042714 0.260882 0.003692
v 0.075677 0.198239 -0.044057
v 0.074004 0.212563 -0.038332
v 0.033908 0.210152 -0.064069
v 0.035413 0.226301 -0.057351
v -0.010450 0.216027 -0.043465
v -0.004390 0.224991 -0.038582
v -0.029298 0.223655 -0.000211
v -0.018487 0.232989 -0.000043
v -0.010806 0.219459 0.044487
v -0.005225 0.229629 0.040887
v 0.033580 0.212091 0.059526
v 0.036568 0.229206 0.057662
v 0.078116 0.206299 0.044994
v 0.076154 0.214808 0.041639
v 0.093785 0.196305 -0.000321
v 0.089444 0.207833 0.000699
v 0.074464 0.183570 -0.042429
v 0.074694 0.188446 -0.043973
v 0.026245 0.191143 -0.062773
v 0.030196 0.196179 -0.064561
v -0.013481 0.200261 -0.043427
v -0.013018 0.206433 -0.044010
v -0.033189 0.203517 -0.003369
v -0.033614 0.209538 0.001005
v -0.014299 0.199517 0.044324
v -0.013939 0.206252 0.046345
v 0.029233 0.190460 0.062713
v 0.030451 0.196700 0.065724
v 0.074104 0.181144 0.043769
v 0.075774 0.186626 0.046967
v 0.090413 0.178775 0.001007
v 0.094029 0.183014 0.001058
vt 0.402406 0.229063
vt 0.416888 0.226748
vt 0.417801 0.285112
vt 0.430653 0.280232
vt 0.431559 0.224744
vt 0.442827 0.276067
vt 0.447208 0.222332
vt 0.455879 0.273624
vt 0.344393 0.248354
vt 0.361537 0.299348
vt 0.329320 0.254404
vt 0.348913 0.304293
vt 0.358348 0.242547
vt 0.374293 0.296388
vt 0.372260 0.237166
vt 0.387935 0.293692
vt 0.387206 0.232498
vt 0.403008 0.289794
vt 0.428822 0.343152
vt 0.437404 0.338487
vt 0.446291 0.389696
vt 0.456296 0.386293
vt 0.435094 0.393608
vt 0.419829 0.346237
vt 0.410659 0.348754
vt 0.423712 0.397105
vt 0.400927 0.349720
vt 0.413567 0.400396
vt 0.392047 0.354569
vt 0.404045 0.403874
vt 0.380980 0.358775
vt 0.394187 0.407821
vt 0.475944 0.380452
vt 0.465852 0.383306
vt 0.458703 0.334766
vt 0.447400 0.337476
vt 0.463349 0.448467
vt 0.455838 0.451975
vt 0.447764 0.453986
vt 0.439917 0.454919
vt 0.432090 0.456476
vt 0.424261 0.459947
vt 0.485340 0.438964
vt 0.477065 0.440942
vt 0.470003 0.444375
vt 0.413739 0.106995
vt 0.393198 0.097649
vt 0.434728 0.087589
vt 0.393039 0.069808
vt 0.370466 0.107809
vt 0.350991 0.088847
vt 0.360661 0.132119
vt 0.332658 0.130670
vt 0.368414 0.153184
vt 0.349562 0.172316
vt 0.391651 0.160450
vt 0.392276 0.189993
vt 0.414917 0.153235
vt 0.435233 0.173002
vt 0.423918 0.130474
vt 0.452370 0.130179
vt 0.216083 0.229942
vt 0.188128 0.205880
vt 0.220092 0.180281
vt 0.195549 0.180232
vt 0.165312 0.239814
vt 0.163546 0.214550
vt 0.110418 0.235152
vt 0.135111 0.207972
vt 0.101382 0.183016
vt 0.125746 0.183249
vt 0.126898 0.147995
vt 0.137700 0.160179
vt 0.162946 0.129918
vt 0.162237 0.150078
vt 0.205938 0.138099
vt 0.186203 0.155406
vt 0.391679 0.130107
vt 0.160438 0.181241
vt 0.279498 0.177077
vt 0.254968 0.176977
vt 0.238848 0.100965
vt 0.225446 0.114195
vt 0.244848 0.258231
vt 0.225509 0.243359
vt 0.164117 0.280611
vt 0.165574 0.300131
vt 0.086850 0.263100
vt 0.101504 0.248377
vt 0.053961 0.184471
vt 0.071823 0.184513
vt 0.090176 0.111107
vt 0.105763 0.127101
vt 0.161031 0.095205
vt 0.160863 0.082345
vt 0.295069 0.174987
vt 0.250645 0.083347
vt 0.302710 0.172001
vt 0.256408 0.076808
vt 0.259903 0.274292
vt 0.264133 0.284799
vt 0.165762 0.315868
vt 0.166341 0.325736
vt 0.067776 0.290194
vt 0.069758 0.277373
vt 0.021379 0.183743
vt 0.032814 0.182601
vt 0.063745 0.084325
vt 0.071600 0.092301
vt 0.159493 0.053843
vt 0.162302 0.043748
vt 0.453817 0.071675
vt 0.388497 0.044594
vt 0.332717 0.070477
vt 0.307210 0.125014
vt 0.331490 0.189023
vt 0.392134 0.214123
vt 0.454745 0.188643
vt 0.477979 0.130319
vn 0.406193 0.110932 -0.907029
vn 0.406193 0.110932 -0.907029
vn 0.408818 -0.033161 -0.912013
vn 0.408708 -0.005750 -0.912647
vn -0.408655 0.017138 -0.912528
vn -0.406007 0.114940 -0.906613
vn -0.932782 -0.046952 -0.357370
vn -0.913047 0.209710 -0.349809
vn -0.932782 -0.046952 0.357370
vn -0.910580 0.221671 0.348864
vn -0.408655 0.017138 0.912528
vn -0.404350 0.135011 0.904585
vn 0.406193 0.110932 0.907029
vn 0.408818 -0.033161 0.912013
vn 0.920777 0.166503 0.352770
vn 0.926132 -0.127989 0.354822
vn 0.399714 0.010776 -0.916577
vn 0.403819 -0.029519 -0.914363
vn 0.406289 0.030535 -0.913234
vn 0.407742 0.027456 -0.912684
vn 0.933652 0.018473 -0.357704
vn 0.931569 -0.069274 -0.356904
vn 0.930089 -0.089204 0.356338
vn 0.933698 0.015575 0.357722
vn 0.403819 -0.029519 0.914363
vn 0.407741 0.027456 0.912685
vn -0.422985 0.074003 0.903110
vn -0.407816 0.049610 0.911715
vn -0.922909 0.152403 0.353571
vn -0.932247 0.057362 0.357247
vn -0.932572 0.050933 -0.357372
vn -0.925062 0.136569 -0.354413
vn 0.903918 -0.250999 -0.346311
vn 0.903918 -0.250999 -0.346311
vn 0.903918 -0.250999 0.346311
vn 0.406884 -0.085784 0.909443
vn -0.402002 0.177185 0.898332
vn -0.881376 0.330328 0.337728
vn -0.881394 0.330326 -0.337682
vn -0.402246 0.177221 -0.898216
vn -0.289136 -0.884001 0.367345
vn -0.325359 -0.851003 0.412232
vn -0.576317 -0.685759 0.444514
vn -0.189397 -0.770063 0.609206
vn 0.057697 -0.995369 0.076881
vn 0.337004 -0.840376 0.424497
vn 0.214591 -0.918247 -0.332827
vn 0.336782 -0.940129 -0.052297
vn 0.287002 -0.938331 -0.192780
vn 0.128961 -0.933232 -0.335331
vn -0.088771 -0.949556 -0.300772
vn -0.092785 -0.788425 -0.608093
vn -0.446666 -0.825041 -0.346116
vn -0.530373 -0.711573 -0.460834
vn -0.273872 -0.944949 -0.179067
vn -0.819874 -0.572523 -0.004866
vn 0.231770 0.622499 -0.747514
vn 0.156307 0.845954 -0.509833
vn 0.637827 0.454620 -0.621689
vn 0.386256 0.888928 -0.246199
vn -0.502299 0.665345 -0.552279
vn -0.025306 0.956720 -0.289908
vn -0.735929 0.676178 -0.034524
vn -0.486818 0.872622 -0.039227
vn -0.536179 0.632036 0.559502
vn -0.225147 0.924977 0.306147
vn 0.098184 0.612012 0.784730
vn 0.261520 0.927084 0.268557
vn 0.689733 0.460826 0.558487
vn 0.387458 0.907491 0.162286
vn 0.953076 0.299879 -0.041448
vn 0.575067 0.816667 -0.048518
vn -0.095005 -0.993532 -0.062190
vn 0.214318 0.974478 -0.066779
vn 0.920934 0.099093 -0.376911
vn 0.732989 0.256911 -0.629860
vn 0.920282 0.127844 -0.369780
vn 0.924081 0.162696 -0.345838
vn 0.469138 0.128768 -0.873687
vn 0.021008 0.463525 -0.885835
vn -0.357276 0.488307 -0.796185
vn -0.347472 0.373255 -0.860200
vn -0.794195 0.444836 -0.413976
vn -0.651271 0.758090 -0.033846
vn -0.838129 0.403142 0.367446
vn -0.766849 0.580501 0.273791
vn -0.350044 0.198463 0.915468
vn -0.366046 0.163710 0.916084
vn 0.353106 0.300310 0.886076
vn 0.330650 0.411183 0.849470
vn 0.897740 -0.170807 -0.406064
vn 0.736733 -0.585107 -0.338931
vn 0.892515 -0.200319 -0.404091
vn 0.719740 -0.609930 -0.331603
vn 0.271791 -0.494698 -0.825472
vn 0.267990 -0.502229 -0.822160
vn -0.444976 -0.045061 -0.894408
vn -0.446642 -0.050730 -0.893273
vn -0.878372 0.229054 -0.419519
vn -0.877792 0.234362 -0.417799
vn -0.730682 -0.170251 0.661149
vn -0.698490 -0.175711 0.693713
vn -0.096199 -0.417114 0.903749
vn -0.101479 -0.416298 0.903548
vn 0.230995 -0.534574 0.812940
vn 0.229025 -0.541609 0.808830
s 1
g mushroom3a:mushroom3a
f 1/1/1 2/2/2 17/3/3
f 17/3/3 2/2/2 24/4/4
f 2/2/2 3/5/5 24/4/4
f 24/4/4 3/5/5 23/6/6
f 3/5/5 4/7/7 23/6/6
f 23/6/6 4/7/7 22/8/8
f 5/9/9 21/10/10 4/11/7
f 4/11/7 21/10/10 22/12/8
f 6/13/11 20/14/12 5/9/9
f 5/9/9 20/14/12 21/10/10
f 7/15/13 19/16/14 6/13/11
f 6/13/11 19/16/14 20/14/12
f 8/17/15 18/18/16 7/15/13
f 7/15/13 18/18/16 19/16/14
f 8/17/15 1/1/1 18/18/16
f 18/18/16 1/1/1 17/3/3
f 26/19/17 39/20/18 25/21/19
f 25/21/19 39/20/18 40/22/20
f 25/21/19 28/23/21 26/19/17
f 26/19/17 28/23/21 27/24/22
f 27/24/22 28/23/21 29/25/23
f 29/25/23 28/23/21 30/26/24
f 29/25/23 30/26/24 31/27/25
f 31/27/25 30/26/24 32/28/26
f 31/27/25 32/28/26 33/29/27
f 33/29/27 32/28/26 34/30/28
f 33/29/27 34/30/28 35/31/29
f 35/31/29 34/30/28 36/32/30
f 36/33/30 38/34/31 35/35/29
f 35/35/29 38/34/31 37/36/32
f 38/34/31 40/22/20 37/36/32
f 37/36/32 40/22/20 39/20/18
f 17/3/3 26/19/17 18/18/16
f 18/18/16 26/19/17 27/24/22
f 19/16/14 18/18/16 29/25/23
f 29/25/23 18/18/16 27/24/22
f 20/14/12 19/16/14 31/27/25
f 31/27/25 19/16/14 29/25/23
f 21/10/10 20/14/12 33/29/27
f 33/29/27 20/14/12 31/27/25
f 22/12/8 21/10/10 35/31/29
f 35/31/29 21/10/10 33/29/27
f 22/8/8 35/35/29 23/6/6
f 23/6/6 35/35/29 37/36/32
f 23/6/6 37/36/32 24/4/4
f 24/4/4 37/36/32 39/20/18
f 24/4/4 39/20/18 17/3/3
f 17/3/3 39/20/18 26/19/17
f 25/21/19 9/37/33 28/23/21
f 28/23/21 9/37/33 16/38/34
f 30/26/24 28/23/21 15/39/35
f 15/39/35 28/23/21 16/38/34
f 32/28/26 30/26/24 14/40/36
f 14/40/36 30/26/24 15/39/35
f 34/30/28 32/28/26 13/41/37
f 13/41/37 32/28/26 14/40/36
f 36/32/30 34/30/28 12/42/38
f 12/42/38 34/30/28 13/41/37
f 36/33/30 12/43/38 38/34/31
f 38/34/31 12/43/38 11/44/39
f 38/34/31 11/44/39 40/22/20
f 40/22/20 11/44/39 10/45/40
f 40/22/20 10/45/40 25/21/19
f 25/21/19 10/45/40 9/37/33
s 7
f 41/46/41 42/47/42 49/48/43
f 49/48/43 42/47/42 50/49/44
f 43/50/45 51/51/46 42/47/42
f 42/47/42 51/51/46 50/49/44
f 43/50/45 44/52/47 51/51/46
f 51/51/46 44/52/47 52/53/48
f 44/52/47 45/54/49 52/53/48
f 52/53/48 45/54/49 53/55/50
f 46/56/51 54/57/52 45/54/49
f 45/54/49 54/57/52 53/55/50
f 46/56/51 47/58/53 54/57/52
f 54/57/52 47/58/53 55/59/54
f 48/60/55 56/61/56 47/58/53
f 47/58/53 56/61/56 55/59/54
f 48/60/55 41/46/41 56/61/56
f 56/61/56 41/46/41 49/48/43
f 58/62/57 66/63/58 57/64/59
f 57/64/59 66/63/58 65/65/60
f 58/62/57 59/66/61 66/63/58
f 66/63/58 59/66/61 67/67/62
f 60/68/63 68/69/64 59/66/61
f 59/66/61 68/69/64 67/67/62
f 60/68/63 61/70/65 68/69/64
f 68/69/64 61/70/65 69/71/66
f 61/70/65 62/72/67 69/71/66
f 69/71/66 62/72/67 70/73/68
f 63/74/69 71/75/70 62/72/67
f 62/72/67 71/75/70 70/73/68
f 64/76/71 72/77/72 63/74/69
f 63/74/69 72/77/72 71/75/70
f 64/76/71 57/64/59 72/77/72
f 72/77/72 57/64/59 65/65/60
f 42/47/42 41/46/41 73/78/73
f 43/50/45 42/47/42 73/78/73
f 44/52/47 43/50/45 73/78/73
f 45/54/49 44/52/47 73/78/73
f 46/56/51 45/54/49 73/78/73
f 47/58/53 46/56/51 73/78/73
f 48/60/55 47/58/53 73/78/73
f 41/46/41 48/60/55 73/78/73
f 65/65/60 66/63/58 74/79/74
f 66/63/58 67/67/62 74/79/74
f 67/67/62 68/69/64 74/79/74
f 68/69/64 69/71/66 74/79/74
f 69/71/66 70/73/68 74/79/74
f 70/73/68 71/75/70 74/79/74
f 71/75/70 72/77/72 74/79/74
f 72/77/72 65/65/60 74/79/74
f 75/80/75 76/81/76 89/82/77
f 89/82/77 76/81/76 90/83/78
f 75/80/75 77/84/79 76/81/76
f 76/81/76 77/84/79 78/85/80
f 78/85/80 77/84/79 80/86/81
f 80/86/81 77/84/79 79/87/82
f 79/87/82 81/88/83 80/86/81
f 80/86/81 81/88/83 82/89/84
f 81/88/83 83/90/85 82/89/84
f 82/89/84 83/90/85 84/91/86
f 83/90/85 85/92/87 84/91/86
f 84/91/86 85/92/87 86/93/88
f 86/93/88 85/92/87 88/94/89
f 88/94/89 85/92/87 87/95/90
f 88/94/89 87/95/90 90/83/78
f 90/83/78 87/95/90 89/82/77
f 78/85/80 58/62/57 76/81/76
f 76/81/76 58/62/57 57/64/59
f 80/86/81 59/66/61 78/85/80
f 78/85/80 59/66/61 58/62/57
f 82/89/84 60/68/63 80/86/81
f 80/86/81 60/68/63 59/66/61
f 82/89/84 84/91/86 60/68/63
f 60/68/63 84/91/86 61/70/65
f 84/91/86 86/93/88 61/70/65
f 61/70/65 86/93/88 62/72/67
f 88/94/89 63/74/69 86/93/88
f 86/93/88 63/74/69 62/72/67
f 90/83/78 64/76/71 88/94/89
f 88/94/89 64/76/71 63/74/69
f 90/83/78 76/81/76 64/76/71
f 64/76/71 76/81/76 57/64/59
f 92/96/91 106/97/92 91/98/93
f 91/98/93 106/97/92 105/99/94
f 92/96/91 91/98/93 94/100/95
f 94/100/95 91/98/93 93/101/96
f 94/100/95 93/101/96 96/102/97
f 96/102/97 93/101/96 95/103/98
f 95/103/98 97/104/99 96/102/97
f 96/102/97 97/104/99 98/105/100
f 97/104/99 99/106/101 98/105/100
f 98/105/100 99/106/101 100/107/102
f 99/106/101 101/108/103 100/107/102
f 100/107/102 101/108/103 102/109/104
f 102/109/104 101/108/103 104/110/105
f 104/110/105 101/108/103 103/111/106
f 104/110/105 103/111/106 106/97/92
f 106/97/92 103/111/106 105/99/94
f 49/48/43 50/49/44 91/112/93
f 91/112/93 50/49/44 93/113/96
f 51/51/46 95/114/98 50/49/44
f 50/49/44 95/114/98 93/113/96
f 51/51/46 52/53/48 95/114/98
f 95/114/98 52/53/48 97/115/99
f 53/55/50 99/116/101 52/53/48
f 52/53/48 99/116/101 97/115/99
f 54/57/52 101/117/103 53/55/50
f 53/55/50 101/117/103 99/116/101
f 54/57/52 55/59/54 101/117/103
f 101/117/103 55/59/54 103/118/106
f 56/61/56 105/119/94 55/59/54
f 55/59/54 105/119/94 103/118/106
f 56/61/56 49/48/43 105/119/94
f 105/119/94 49/48/43 91/112/93
f 92/96/91 94/100/95 75/80/75
f 75/80/75 94/100/95 77/84/79
f 96/102/97 79/87/82 94/100/95
f 94/100/95 79/87/82 77/84/79
f 98/105/100 81/88/83 96/102/97
f 96/102/97 81/88/83 79/87/82
f 100/107/102 83/90/85 98/105/100
f 98/105/100 83/90/85 81/88/83
f 102/109/104 85/92/87 100/107/102
f 100/107/102 85/92/87 83/90/85
f 102/109/104 104/110/105 85/92/87
f 85/92/87 104/110/105 87/95/90
f 106/97/92 89/82/77 104/110/105
f 104/110/105 89/82/77 87/95/90
f 106/97/92 92/96/91 89/82/77
f 89/82/77 92/96/91 75/80/75
