# This file uses centimeters as units for non-parametric coordinates.

v 0.024306 -0.000390 -0.016610
v 0.008893 -0.000390 -0.023513
v -0.006520 -0.000390 -0.016610
v -0.012905 -0.000390 0.000054
v -0.006520 -0.000390 0.016717
v 0.008893 -0.000390 0.023620
v 0.024306 -0.000390 0.016718
v 0.030690 -0.000390 0.000054
v 0.042368 0.231373 -0.008393
v 0.034556 0.231373 -0.011892
v 0.026743 0.231373 -0.008393
v 0.023507 0.231373 0.000054
v 0.026743 0.231373 0.008500
v 0.034556 0.231373 0.011999
v 0.042368 0.231373 0.008500
v 0.045604 0.231373 0.000054
v 0.050577 0.043498 -0.013633
v 0.055821 0.043498 0.000054
v 0.050577 0.043498 0.013741
v 0.037917 0.043498 0.019410
v 0.025258 0.043498 0.013741
v 0.020014 0.043498 0.000054
v 0.025258 0.043498 -0.013633
v 0.037917 0.043498 -0.019303
v 0.059866 0.154678 -0.010595
v 0.067851 0.101897 -0.011837
v 0.072407 0.101897 0.000054
v 0.063946 0.154678 0.000054
v 0.067851 0.101897 0.011944
v 0.059866 0.154678 0.010702
v 0.056471 0.100640 0.016922
v 0.050004 0.154900 0.015102
v 0.046222 0.103006 0.011912
v 0.040157 0.155070 0.010688
v 0.041678 0.103006 0.000054
v 0.036083 0.155083 0.000054
v 0.046222 0.103006 -0.011805
v 0.040157 0.155070 -0.010581
v 0.056471 0.100640 -0.016815
v 0.050004 0.154900 -0.014995
v 0.051565 0.234387 -0.017958
v 0.034790 0.232878 -0.025535
v 0.015748 0.245090 -0.017619
v 0.009081 0.226847 0.002186
v 0.015886 0.221818 0.019012
v 0.033294 0.246410 0.026300
v 0.052110 0.226819 0.019117
v 0.059903 0.241837 0.001324
v 0.068394 0.220441 -0.033161
v 0.034730 0.220109 -0.047828
v 0.000452 0.225946 -0.033032
v -0.013776 0.216874 0.001102
v 0.000478 0.216342 0.034654
v 0.034359 0.219984 0.049463
v 0.068640 0.220781 0.035533
v 0.083771 0.232132 0.001127
v 0.068570 0.264866 -0.034247
v 0.034868 0.252476 -0.052462
v 0.000567 0.262765 -0.033611
v -0.017624 0.247589 0.001838
v -0.001574 0.259512 0.037044
v 0.033667 0.270889 0.047821
v 0.069746 0.269873 0.034734
v 0.086625 0.261639 -0.000004
v 0.055020 0.274362 -0.018694
v 0.033816 0.273429 -0.029042
v 0.013316 0.274157 -0.018820
v -0.001564 0.275050 0.003181
v 0.007969 0.277689 0.026534
v 0.032593 0.279063 0.034037
v 0.055191 0.275287 0.022462
v 0.066446 0.275068 0.002682
v 0.033767 0.230879 0.000389
v 0.032915 0.280881 0.004126
v 0.081379 0.222404 -0.047104
v 0.076454 0.237072 -0.040963
v 0.034891 0.225673 -0.068576
v 0.032899 0.242961 -0.061368
v -0.012979 0.222030 -0.046469
v -0.008599 0.232782 -0.041230
v -0.034455 0.225870 -0.000061
v -0.025169 0.238060 0.000119
v -0.014113 0.225554 0.047896
v -0.010502 0.237466 0.044034
v 0.034118 0.227636 0.064033
v 0.033469 0.246266 0.062032
v 0.082157 0.231406 0.048441
v 0.078214 0.239905 0.044842
v 0.100818 0.224379 -0.000179
v 0.093710 0.235522 0.000915
v 0.083350 0.206736 -0.045359
v 0.082513 0.211905 -0.047014
v 0.031050 0.204021 -0.067186
v 0.034084 0.210182 -0.069105
v -0.012675 0.204807 -0.046429
v -0.013553 0.211390 -0.047054
v -0.034086 0.203866 -0.003449
v -0.035864 0.210094 0.001244
v -0.013369 0.203845 0.047722
v -0.014480 0.210996 0.049891
v 0.034338 0.203965 0.067452
v 0.034237 0.210785 0.070683
v 0.083508 0.204108 0.047126
v 0.084048 0.210233 0.050558
v 0.101155 0.205229 0.001246
v 0.104013 0.210479 0.001301
vt 0.417443 0.230153
vt 0.430930 0.282559
vt 0.403252 0.232421
vt 0.418337 0.287342
vt 0.431819 0.228188
vt 0.442859 0.278479
vt 0.447152 0.225825
vt 0.455648 0.276085
vt 0.331636 0.257251
vt 0.346406 0.251324
vt 0.350836 0.306136
vt 0.363205 0.301291
vt 0.360080 0.245633
vt 0.375705 0.298391
vt 0.373712 0.240361
vt 0.389072 0.295749
vt 0.388358 0.235787
vt 0.403842 0.291930
vt 0.429137 0.344214
vt 0.437545 0.339642
vt 0.446254 0.389821
vt 0.456058 0.386486
vt 0.435282 0.393654
vt 0.420324 0.347236
vt 0.411339 0.349703
vt 0.424129 0.397080
vt 0.401803 0.350649
vt 0.414188 0.400305
vt 0.393101 0.355400
vt 0.404858 0.403713
vt 0.382258 0.359521
vt 0.395198 0.407581
vt 0.475310 0.380763
vt 0.465421 0.383559
vt 0.458416 0.335996
vt 0.447341 0.338652
vt 0.455608 0.450846
vt 0.462968 0.447409
vt 0.447697 0.452817
vt 0.440008 0.453731
vt 0.432339 0.455257
vt 0.424667 0.458657
vt 0.476408 0.440035
vt 0.484517 0.438096
vt 0.469488 0.443398
vt 0.393674 0.096565
vt 0.393513 0.068192
vt 0.414608 0.106090
vt 0.435999 0.086313
vt 0.370508 0.106919
vt 0.350661 0.087595
vt 0.360516 0.131694
vt 0.331977 0.130218
vt 0.368417 0.153162
vt 0.349204 0.172660
vt 0.392098 0.160567
vt 0.392734 0.190675
vt 0.415809 0.153214
vt 0.436513 0.173358
vt 0.424982 0.130017
vt 0.453978 0.129717
vt 0.216955 0.230935
vt 0.188745 0.206653
vt 0.220999 0.180821
vt 0.196233 0.180772
vt 0.165721 0.240897
vt 0.163938 0.215403
vt 0.110326 0.236193
vt 0.135244 0.208765
vt 0.101208 0.183581
vt 0.125794 0.183817
vt 0.126957 0.148241
vt 0.137856 0.160536
vt 0.163333 0.130000
vt 0.162617 0.150343
vt 0.206717 0.138255
vt 0.186802 0.155720
vt 0.392127 0.129644
vt 0.160802 0.181791
vt 0.280947 0.177589
vt 0.256193 0.177487
vt 0.239927 0.100783
vt 0.226403 0.114133
vt 0.245981 0.259482
vt 0.226467 0.244474
vt 0.165985 0.301764
vt 0.164514 0.282066
vt 0.101331 0.249538
vt 0.086544 0.264395
vt 0.053355 0.185050
vt 0.071379 0.185092
vt 0.089900 0.111017
vt 0.105629 0.127157
vt 0.161401 0.094970
vt 0.161231 0.081993
vt 0.296660 0.175479
vt 0.251831 0.083004
vt 0.304371 0.172466
vt 0.257647 0.076405
vt 0.261173 0.275690
vt 0.265442 0.286292
vt 0.166175 0.317645
vt 0.166758 0.327602
vt 0.067295 0.291736
vt 0.069296 0.278798
vt 0.020476 0.184315
vt 0.032015 0.183163
vt 0.063228 0.083990
vt 0.071154 0.092040
vt 0.159849 0.053231
vt 0.162683 0.043045
vt 0.455453 0.070095
vt 0.388884 0.042496
vt 0.332038 0.068874
vt 0.306043 0.124454
vt 0.330787 0.189686
vt 0.392590 0.215266
vt 0.456398 0.189299
vt 0.480077 0.129860
vn 0.402057 -0.179773 -0.897793
vn 0.404525 -0.142820 -0.903306
vn 0.402057 -0.179773 -0.897793
vn 0.405816 -0.119769 -0.906073
vn -0.384818 0.336929 -0.859299
vn -0.394029 0.265657 -0.879868
vn -0.764856 0.573696 -0.293033
vn -0.830101 0.458028 -0.318030
vn -0.764856 0.573696 0.293033
vn -0.841799 0.432853 0.322512
vn -0.384818 0.336929 0.859299
vn -0.398292 0.223186 0.889692
vn 0.402057 -0.179773 0.897793
vn 0.405816 -0.119769 0.906073
vn 0.823479 -0.471536 0.315493
vn 0.875750 -0.347116 0.335519
vn 0.400497 0.002574 -0.916295
vn 0.403191 -0.019899 -0.914899
vn 0.406100 0.100029 -0.908337
vn 0.407093 0.104044 -0.907441
vn 0.917164 0.187981 -0.351387
vn 0.931822 -0.065248 -0.357002
vn 0.930987 -0.077726 0.356682
vn 0.916720 0.190451 0.351217
vn 0.403191 -0.019899 0.914899
vn 0.407093 0.104044 0.907441
vn -0.422073 0.075959 0.903374
vn -0.409257 -0.038667 0.911600
vn -0.924295 0.142415 0.354113
vn -0.925732 -0.131642 0.354530
vn -0.925984 -0.129578 -0.354631
vn -0.925735 0.131238 -0.354670
vn 0.911362 0.217956 -0.349164
vn 0.911362 0.217956 -0.349164
vn 0.911362 0.217956 0.349164
vn 0.405824 0.118749 0.906204
vn -0.408290 -0.045635 0.911711
vn -0.922941 -0.152140 0.353600
vn -0.922948 -0.152139 -0.353584
vn -0.408384 -0.045642 -0.911668
vn -0.121359 -0.911175 0.393741
vn -0.074843 -0.796621 0.599828
vn -0.078020 -0.925857 0.369731
vn -0.296134 -0.812921 0.501462
vn 0.261648 -0.962096 0.076881
vn 0.468578 -0.774436 0.425069
vn 0.384360 -0.879313 -0.281205
vn 0.502850 -0.854238 -0.131981
vn 0.461238 -0.859742 -0.219325
vn 0.332451 -0.873721 -0.355088
vn 0.108882 -0.947461 -0.300771
vn 0.071737 -0.790618 -0.608094
vn -0.197946 -0.905312 -0.375802
vn -0.291592 -0.803547 -0.518928
vn -0.106446 -0.992336 -0.062756
vn -0.661026 -0.750346 -0.005033
vn 0.098467 0.656907 -0.747514
vn -0.021439 0.860006 -0.509834
vn 0.529105 0.597463 -0.602566
vn 0.246436 0.940778 -0.232823
vn -0.607092 0.553756 -0.569907
vn -0.221985 0.930954 -0.289909
vn -0.840370 0.539342 0.053739
vn -0.656248 0.753525 -0.039227
vn -0.654953 0.507931 0.559502
vn -0.410991 0.858697 0.306147
vn -0.030088 0.619107 0.784730
vn 0.064790 0.961082 0.268558
vn 0.602026 0.581555 0.547137
vn 0.192063 0.967871 0.162288
vn 0.875147 0.481651 -0.046160
vn 0.388667 0.919585 -0.057460
vn 0.111846 -0.991778 -0.062190
vn 0.008832 0.997729 -0.066779
vn 0.880726 0.286810 -0.376912
vn 0.664284 0.402495 -0.629860
vn 0.874161 0.314809 -0.369781
vn 0.870694 0.349696 -0.345839
vn 0.432517 0.222713 -0.873686
vn -0.062676 0.464927 -0.883128
vn -0.445894 0.258265 -0.857017
vn -0.477470 0.423204 -0.770013
vn -0.829328 0.554339 -0.070167
vn -0.859456 0.292981 -0.418924
vn -0.903233 0.221706 0.367446
vn -0.870045 0.409951 0.273791
vn -0.383437 0.122040 0.915468
vn -0.391932 0.084735 0.916084
vn 0.283616 0.366651 0.886075
vn 0.238787 0.470514 0.849469
vn 0.913668 0.017925 -0.406066
vn 0.841525 -0.420669 -0.338929
vn 0.914639 -0.012031 -0.404093
vn 0.830013 -0.448463 -0.331601
vn 0.367932 -0.428044 -0.825472
vn 0.365765 -0.436197 -0.822161
vn -0.426129 -0.135822 -0.894408
vn -0.426590 -0.141712 -0.893274
vn -0.906723 0.043062 -0.419522
vn -0.907250 0.048376 -0.417800
vn -0.679892 -0.317221 0.661149
vn -0.647265 -0.315927 0.693714
vn -0.008146 -0.427984 0.903750
vn -0.013482 -0.428273 0.903549
vn 0.336233 -0.475473 0.812941
vn 0.335755 -0.482763 0.808831
s 1
g mushroom3b:mushroom3b
f 2/1/1 24/2/2 1/3/3
f 1/3/3 24/2/2 17/4/4
f 3/5/5 23/6/6 2/1/1
f 2/1/1 23/6/6 24/2/2
f 4/7/7 22/8/8 3/5/5
f 3/5/5 22/8/8 23/6/6
f 4/9/7 5/10/9 22/11/8
f 22/11/8 5/10/9 21/12/10
f 5/10/9 6/13/11 21/12/10
f 21/12/10 6/13/11 20/14/12
f 6/13/11 7/15/13 20/14/12
f 20/14/12 7/15/13 19/16/14
f 7/15/13 8/17/15 19/16/14
f 19/16/14 8/17/15 18/18/16
f 1/3/3 17/4/4 8/17/15
f 8/17/15 17/4/4 18/18/16
f 26/19/17 39/20/18 25/21/19
f 25/21/19 39/20/18 40/22/20
f 25/21/19 28/23/21 26/19/17
f 26/19/17 28/23/21 27/24/22
f 27/24/22 28/23/21 29/25/23
f 29/25/23 28/23/21 30/26/24
f 29/25/23 30/26/24 31/27/25
f 31/27/25 30/26/24 32/28/26
f 31/27/25 32/28/26 33/29/27
f 33/29/27 32/28/26 34/30/28
f 33/29/27 34/30/28 35/31/29
f 35/31/29 34/30/28 36/32/30
f 36/33/30 38/34/31 35/35/29
f 35/35/29 38/34/31 37/36/32
f 38/34/31 40/22/20 37/36/32
f 37/36/32 40/22/20 39/20/18
f 17/4/4 26/19/17 18/18/16
f 18/18/16 26/19/17 27/24/22
f 19/16/14 18/18/16 29/25/23
f 29/25/23 18/18/16 27/24/22
f 20/14/12 19/16/14 31/27/25
f 31/27/25 19/16/14 29/25/23
f 21/12/10 20/14/12 33/29/27
f 33/29/27 20/14/12 31/27/25
f 22/11/8 21/12/10 35/31/29
f 35/31/29 21/12/10 33/29/27
f 22/8/8 35/35/29 23/6/6
f 23/6/6 35/35/29 37/36/32
f 23/6/6 37/36/32 24/2/2
f 24/2/2 37/36/32 39/20/18
f 24/2/2 39/20/18 17/4/4
f 17/4/4 39/20/18 26/19/17
f 28/23/21 25/21/19 16/37/33
f 16/37/33 25/21/19 9/38/34
f 28/23/21 16/37/33 30/26/24
f 30/26/24 16/37/33 15/39/35
f 30/26/24 15/39/35 32/28/26
f 32/28/26 15/39/35 14/40/36
f 32/28/26 14/40/36 34/30/28
f 34/30/28 14/40/36 13/41/37
f 34/30/28 13/41/37 36/32/30
f 36/32/30 13/41/37 12/42/38
f 38/34/31 36/33/30 11/43/39
f 11/43/39 36/33/30 12/44/38
f 40/22/20 38/34/31 10/45/40
f 10/45/40 38/34/31 11/43/39
f 25/21/19 40/22/20 9/38/34
f 9/38/34 40/22/20 10/45/40
s 5
f 42/46/41 50/47/42 41/48/43
f 41/48/43 50/47/42 49/49/44
f 43/50/45 51/51/46 42/46/41
f 42/46/41 51/51/46 50/47/42
f 43/50/45 44/52/47 51/51/46
f 51/51/46 44/52/47 52/53/48
f 45/54/49 53/55/50 44/52/47
f 44/52/47 53/55/50 52/53/48
f 46/56/51 54/57/52 45/54/49
f 45/54/49 54/57/52 53/55/50
f 46/56/51 47/58/53 54/57/52
f 54/57/52 47/58/53 55/59/54
f 47/58/53 48/60/55 55/59/54
f 55/59/54 48/60/55 56/61/56
f 41/48/43 49/49/44 48/60/55
f 48/60/55 49/49/44 56/61/56
f 58/62/57 66/63/58 57/64/59
f 57/64/59 66/63/58 65/65/60
f 58/62/57 59/66/61 66/63/58
f 66/63/58 59/66/61 67/67/62
f 60/68/63 68/69/64 59/66/61
f 59/66/61 68/69/64 67/67/62
f 60/68/63 61/70/65 68/69/64
f 68/69/64 61/70/65 69/71/66
f 61/70/65 62/72/67 69/71/66
f 69/71/66 62/72/67 70/73/68
f 63/74/69 71/75/70 62/72/67
f 62/72/67 71/75/70 70/73/68
f 64/76/71 72/77/72 63/74/69
f 63/74/69 72/77/72 71/75/70
f 57/64/59 65/65/60 64/76/71
f 64/76/71 65/65/60 72/77/72
f 42/46/41 41/48/43 73/78/73
f 43/50/45 42/46/41 73/78/73
f 44/52/47 43/50/45 73/78/73
f 45/54/49 44/52/47 73/78/73
f 46/56/51 45/54/49 73/78/73
f 47/58/53 46/56/51 73/78/73
f 48/60/55 47/58/53 73/78/73
f 41/48/43 48/60/55 73/78/73
f 65/65/60 66/63/58 74/79/74
f 66/63/58 67/67/62 74/79/74
f 67/67/62 68/69/64 74/79/74
f 68/69/64 69/71/66 74/79/74
f 69/71/66 70/73/68 74/79/74
f 70/73/68 71/75/70 74/79/74
f 71/75/70 72/77/72 74/79/74
f 72/77/72 65/65/60 74/79/74
f 75/80/75 76/81/76 89/82/77
f 89/82/77 76/81/76 90/83/78
f 75/80/75 77/84/79 76/81/76
f 76/81/76 77/84/79 78/85/80
f 77/84/79 79/86/81 78/85/80
f 78/85/80 79/86/81 80/87/82
f 80/87/82 79/86/81 82/88/83
f 82/88/83 79/86/81 81/89/84
f 81/89/84 83/90/85 82/88/83
f 82/88/83 83/90/85 84/91/86
f 83/90/85 85/92/87 84/91/86
f 84/91/86 85/92/87 86/93/88
f 86/93/88 85/92/87 88/94/89
f 88/94/89 85/92/87 87/95/90
f 88/94/89 87/95/90 90/83/78
f 90/83/78 87/95/90 89/82/77
f 78/85/80 58/62/57 76/81/76
f 76/81/76 58/62/57 57/64/59
f 80/87/82 59/66/61 78/85/80
f 78/85/80 59/66/61 58/62/57
f 80/87/82 82/88/83 59/66/61
f 59/66/61 82/88/83 60/68/63
f 82/88/83 84/91/86 60/68/63
f 60/68/63 84/91/86 61/70/65
f 84/91/86 86/93/88 61/70/65
f 61/70/65 86/93/88 62/72/67
f 88/94/89 63/74/69 86/93/88
f 86/93/88 63/74/69 62/72/67
f 88/94/89 90/83/78 63/74/69
f 63/74/69 90/83/78 64/76/71
f 90/83/78 76/81/76 64/76/71
f 64/76/71 76/81/76 57/64/59
f 92/96/91 106/97/92 91/98/93
f 91/98/93 106/97/92 105/99/94
f 92/96/91 91/98/93 94/100/95
f 94/100/95 91/98/93 93/101/96
f 94/100/95 93/101/96 96/102/97
f 96/102/97 93/101/96 95/103/98
f 95/103/98 97/104/99 96/102/97
f 96/102/97 97/104/99 98/105/100
f 97/104/99 99/106/101 98/105/100
f 98/105/100 99/106/101 100/107/102
f 99/106/101 101/108/103 100/107/102
f 100/107/102 101/108/103 102/109/104
f 102/109/104 101/108/103 104/110/105
f 104/110/105 101/108/103 103/111/106
f 104/110/105 103/111/106 106/97/92
f 106/97/92 103/111/106 105/99/94
f 49/49/44 50/47/42 91/112/93
f 91/112/93 50/47/42 93/113/96
f 50/47/42 51/51/46 93/113/96
f 93/113/96 51/51/46 95/114/98
f 52/53/48 97/115/99 51/51/46
f 51/51/46 97/115/99 95/114/98
f 53/55/50 99/116/101 52/53/48
f 52/53/48 99/116/101 97/115/99
f 54/57/52 101/117/103 53/55/50
f 53/55/50 101/117/103 99/116/101
f 54/57/52 55/59/54 101/117/103
f 101/117/103 55/59/54 103/118/106
f 55/59/54 56/61/56 103/118/106
f 103/118/106 56/61/56 105/119/94
f 49/49/44 91/112/93 56/61/56
f 56/61/56 91/112/93 105/119/94
f 92/96/91 94/100/95 75/80/75
f 75/80/75 94/100/95 77/84/79
f 96/102/97 79/86/81 94/100/95
f 94/100/95 79/86/81 77/84/79
f 98/105/100 81/89/84 96/102/97
f 96/102/97 81/89/84 79/86/81
f 100/107/102 83/90/85 98/105/100
f 98/105/100 83/90/85 81/89/84
f 102/109/104 85/92/87 100/107/102
f 100/107/102 85/92/87 83/90/85
f 102/109/104 104/110/105 85/92/87
f 85/92/87 104/110/105 87/95/90
f 104/110/105 106/97/92 87/95/90
f 87/95/90 106/97/92 89/82/77
f 106/97/92 92/96/91 89/82/77
f 89/82/77 92/96/91 75/80/75
