# This file uses centimeters as units for non-parametric coordinates.

v 0.025544 -0.000348 -0.028720
v -0.003011 -0.000348 -0.040548
v -0.031567 -0.000348 -0.028720
v -0.043395 -0.000348 -0.000165
v -0.031567 -0.000348 0.028390
v -0.003011 -0.000348 0.040218
v 0.025544 -0.000348 0.028390
v 0.037372 -0.000348 -0.000165
v 0.059007 0.206921 -0.014639
v 0.044533 0.206921 -0.020634
v 0.030059 0.206921 -0.014639
v 0.024064 0.206921 -0.000165
v 0.030059 0.206921 0.014309
v 0.044533 0.206921 0.020304
v 0.059007 0.206921 0.014309
v 0.065002 0.206921 -0.000165
v 0.032390 0.063955 -0.023619
v 0.042105 0.063955 -0.000165
v 0.032390 0.063954 0.023289
v 0.008936 0.063954 0.033004
v -0.014518 0.063954 0.023289
v -0.024233 0.063954 -0.000165
v -0.014518 0.063954 -0.023619
v 0.008936 0.063954 -0.033334
v 0.069538 0.152456 -0.018413
v 0.063744 0.118704 -0.020541
v 0.072184 0.118704 -0.000165
v 0.077096 0.152456 -0.000165
v 0.063744 0.118704 0.020211
v 0.069538 0.152456 0.018083
v 0.042660 0.117579 0.028741
v 0.051266 0.152655 0.025622
v 0.023671 0.119695 0.020155
v 0.033023 0.152807 0.018058
v 0.015254 0.119695 -0.000165
v 0.025475 0.152819 -0.000165
v 0.023671 0.119695 -0.020485
v 0.033023 0.152807 -0.018388
v 0.042660 0.117579 -0.029070
v 0.051266 0.152655 -0.025952
v 0.073983 0.206656 -0.027981
v 0.048527 0.205665 -0.039479
v 0.019633 0.213684 -0.027467
v 0.009515 0.201705 0.002585
v 0.019841 0.198403 0.028118
v 0.046257 0.214550 0.039177
v 0.074809 0.201686 0.028277
v 0.086635 0.211547 0.001277
v 0.099519 0.197499 -0.051051
v 0.048436 0.197281 -0.073308
v -0.003579 0.201113 -0.050855
v -0.025168 0.195157 0.000940
v -0.003538 0.194808 0.051854
v 0.047873 0.197199 0.074325
v 0.099893 0.197722 0.053188
v 0.122853 0.205175 0.000979
v 0.099786 0.226668 -0.052699
v 0.048646 0.218533 -0.080340
v -0.003404 0.225289 -0.051735
v -0.031008 0.215324 0.002058
v -0.006653 0.223153 0.055480
v 0.047600 0.232665 0.078066
v 0.101572 0.229956 0.051976
v 0.127183 0.224549 -0.000738
v 0.079226 0.232903 -0.029099
v 0.047049 0.232291 -0.044801
v 0.015942 0.232769 -0.029289
v -0.006638 0.233355 0.004095
v 0.007828 0.235087 0.039533
v 0.045194 0.235990 0.050918
v 0.079521 0.233830 0.033257
v 0.096563 0.233366 0.003338
v 0.046975 0.204353 -0.000141
v 0.045572 0.224843 0.007677
v 0.119223 0.198788 -0.072210
v 0.111750 0.208419 -0.062890
v 0.048681 0.200934 -0.104792
v 0.045658 0.212285 -0.093854
v -0.023960 0.198542 -0.071246
v -0.017314 0.205602 -0.063296
v -0.056548 0.201064 -0.000824
v -0.042457 0.209068 -0.000551
v -0.025680 0.200856 0.071948
v -0.020201 0.208677 0.066087
v 0.047507 0.202223 0.096435
v 0.046523 0.214456 0.093399
v 0.120404 0.204698 0.072775
v 0.114421 0.210279 0.067313
v 0.148721 0.200084 -0.001003
v 0.137935 0.207401 0.000657
v 0.122214 0.188500 -0.069561
v 0.120943 0.191894 -0.072073
v 0.042852 0.186718 -0.102682
v 0.047456 0.190763 -0.105594
v -0.023498 0.187233 -0.071185
v -0.024831 0.191556 -0.072133
v -0.055988 0.186616 -0.005965
v -0.058686 0.190705 0.001156
v -0.024552 0.186602 0.071683
v -0.026238 0.191298 0.074975
v 0.047841 0.186681 0.101622
v 0.047688 0.191159 0.106525
v 0.122454 0.186775 0.070780
v 0.123274 0.190796 0.075986
v 0.149232 0.187510 0.001159
v 0.153570 0.190958 0.001242
vt 0.906859 0.759981
vt 0.888454 0.824448
vt 0.876124 0.758011
vt 0.861193 0.824531
vt 0.937511 0.764516
vt 0.913864 0.825872
vt 0.966735 0.775061
vt 0.937028 0.833624
vt 0.992614 0.792292
vt 0.956605 0.848832
vt 0.757334 0.730252
vt 0.787011 0.737391
vt 0.755716 0.795880
vt 0.780109 0.803681
vt 0.816056 0.746721
vt 0.805447 0.813758
vt 0.845682 0.754259
vt 0.832892 0.821319
vt 0.832116 0.911089
vt 0.839956 0.883283
vt 0.849371 0.914865
vt 0.860655 0.881480
vt 0.821272 0.881433
vt 0.815875 0.907881
vt 0.799637 0.904545
vt 0.803413 0.875845
vt 0.782224 0.901352
vt 0.785263 0.866117
vt 0.762840 0.898772
vt 0.765206 0.861306
vt 0.905817 0.936021
vt 0.887563 0.927129
vt 0.921475 0.906592
vt 0.903606 0.892879
vt 0.881571 0.885212
vt 0.868146 0.919919
vt 0.805604 0.958442
vt 0.821267 0.962255
vt 0.789646 0.955973
vt 0.773500 0.954798
vt 0.757354 0.954468
vt 0.880953 0.985191
vt 0.866201 0.979265
vt 0.851437 0.973218
vt 0.836535 0.967335
vt 0.885546 0.578396
vt 0.885359 0.545516
vt 0.909806 0.589435
vt 0.934594 0.566516
vt 0.858700 0.590395
vt 0.835700 0.568002
vt 0.847121 0.619105
vt 0.814049 0.617395
vt 0.856277 0.643983
vt 0.834013 0.666579
vt 0.883720 0.652565
vt 0.884457 0.687454
vt 0.911197 0.644043
vt 0.935190 0.667388
vt 0.921827 0.617162
vt 0.955428 0.616814
vt 0.643435 0.736751
vt 0.641562 0.695823
vt 0.696776 0.703727
vt 0.674799 0.678988
vt 0.587917 0.703532
vt 0.608958 0.679268
vt 0.553131 0.646073
vt 0.585670 0.643862
vt 0.583582 0.587971
vt 0.601039 0.607245
vt 0.642038 0.569124
vt 0.639180 0.596075
vt 0.696477 0.594933
vt 0.674233 0.614128
vt 0.723804 0.649268
vt 0.691737 0.645038
vt 0.883753 0.616730
vt 0.639774 0.640997
vt 0.727422 0.734550
vt 0.716047 0.721156
vt 0.759475 0.649674
vt 0.744906 0.648023
vt 0.643101 0.770668
vt 0.639959 0.753034
vt 0.556475 0.733896
vt 0.565891 0.722872
vt 0.538612 0.649161
vt 0.520238 0.649478
vt 0.555393 0.563278
vt 0.564469 0.572270
vt 0.642075 0.531212
vt 0.641177 0.544878
vt 0.715860 0.573601
vt 0.724025 0.566563
vt 0.958036 0.543630
vt 0.991120 0.616964
vt 0.957138 0.547721
vt 0.985673 0.616980
vt 0.884002 0.510443
vt 0.879996 0.515739
vt 0.810729 0.543283
vt 0.814119 0.546307
vt 0.783995 0.610715
vt 0.778216 0.616601
vt 0.812670 0.686309
vt 0.809379 0.691028
vt 0.884290 0.715953
vt 0.884122 0.722432
vt 0.960380 0.691941
vt 0.958233 0.685861
vt 0.734088 0.739164
vt 0.641858 0.782115
vt 0.550725 0.739676
vt 0.508109 0.647642
vt 0.548561 0.553898
vt 0.642502 0.513366
vt 0.735558 0.555162
vt 0.771309 0.647205
vn 0.382482 0.032537 -0.923390
vn 0.382512 -0.029899 -0.923467
vn 0.382482 0.032537 -0.923390
vn 0.381604 -0.075044 -0.921275
vn -0.376972 0.172145 -0.910087
vn -0.373746 0.214863 -0.902301
vn -0.890740 0.265428 -0.368958
vn -0.850073 0.391653 -0.352113
vn -0.890740 0.265428 0.368958
vn -0.839156 0.418327 0.347591
vn -0.376972 0.172145 0.910087
vn -0.371193 0.243221 0.896136
vn 0.382482 0.032536 0.923390
vn 0.381606 -0.075044 0.921274
vn 0.921751 -0.067840 0.381803
vn 0.889341 -0.270873 0.368376
vn 0.380871 0.082333 -0.920955
vn 0.378421 -0.084389 -0.921779
vn 0.380054 0.075125 -0.921908
vn 0.377814 -0.123569 -0.917599
vn 0.870881 -0.333827 -0.360730
vn 0.921379 0.073516 -0.381650
vn 0.922034 0.063163 0.381920
vn 0.861619 -0.360888 0.356893
vn 0.380055 0.075125 0.921908
vn 0.377814 -0.123569 0.917599
vn -0.382432 0.097909 0.918782
vn -0.373153 0.262110 0.889975
vn -0.918938 0.103104 0.380686
vn -0.814028 0.472935 0.337181
vn -0.824040 0.452149 -0.341349
vn -0.919698 0.094742 -0.381025
vn 0.905031 0.200967 -0.374875
vn 0.905031 0.200967 -0.374874
vn 0.905032 0.200967 0.374873
vn 0.379088 0.136712 0.915206
vn -0.382329 0.043008 0.923025
vn -0.923611 -0.024092 0.382573
vn -0.923611 -0.024091 -0.382573
vn -0.382330 0.043008 -0.923024
vn -0.053264 -0.983034 0.175521
vn -0.040629 -0.949403 0.311421
vn -0.038380 -0.984279 0.172399
vn -0.150044 -0.955087 0.255530
vn 0.136806 -0.989907 0.036994
vn 0.251197 -0.938536 0.236750
vn 0.171608 -0.975994 -0.134114
vn 0.246997 -0.966759 -0.066104
vn 0.206969 -0.974497 -0.086721
vn 0.158509 -0.972529 -0.170477
vn 0.062561 -0.983615 -0.169078
vn 0.030113 -0.949680 -0.311770
vn -0.071351 -0.983912 -0.163789
vn -0.149091 -0.951325 -0.269728
vn -0.046162 -0.998477 -0.030206
vn -0.386987 -0.922077 -0.003797
vn 0.051493 0.905832 -0.420495
vn -0.012632 0.985523 -0.169072
vn 0.349701 0.847190 -0.399972
vn 0.030999 0.999293 -0.021258
vn -0.416128 0.817138 -0.398903
vn -0.007933 0.999545 -0.029099
vn -0.555183 0.831160 0.030745
vn -0.280427 0.959814 -0.010826
vn -0.454302 0.806192 0.379030
vn -0.100369 0.992851 0.064600
vn -0.024170 0.842123 0.538744
vn -0.043214 0.998639 -0.029189
vn 0.418284 0.839399 0.347056
vn 0.001333 0.999312 -0.037057
vn 0.630347 0.775303 -0.039609
vn 0.087342 0.995874 -0.024637
vn 0.040832 -0.998593 -0.033822
vn 0.004862 0.999112 -0.041844
vn 0.759956 0.562850 -0.325063
vn 0.502293 0.719826 -0.479116
vn 0.743670 0.589499 -0.315351
vn 0.695577 0.663324 -0.275998
vn 0.397767 0.439912 -0.805145
vn -0.038922 0.765162 -0.642661
vn -0.391918 0.546373 -0.740187
vn -0.358678 0.732203 -0.578990
vn -0.521588 0.852644 -0.030722
vn -0.765559 0.526343 -0.369977
vn -0.837425 0.425916 0.342513
vn -0.666502 0.715282 0.210111
vn -0.377913 0.239985 0.894197
vn -0.385964 0.192838 0.902134
vn 0.195320 0.733013 0.651569
vn 0.170521 0.776493 0.606615
vn 0.913031 0.041404 -0.405783
vn 0.619056 -0.745064 -0.248294
vn 0.914245 0.006520 -0.405110
vn 0.606451 -0.757307 -0.242287
vn 0.272383 -0.742676 -0.611751
vn 0.270684 -0.746013 -0.608437
vn -0.409557 -0.308478 -0.858548
vn -0.409129 -0.314107 -0.856709
vn -0.901876 0.116587 -0.415965
vn -0.902816 0.109794 -0.415776
vn -0.581872 -0.603424 0.545257
vn -0.524301 -0.610318 0.593819
vn -0.004223 -0.738605 0.674125
vn -0.010854 -0.738518 0.674147
vn 0.237897 -0.783359 0.574242
vn 0.236729 -0.786597 0.570285
s 1
g mushroom2:mushroom2
f 2/1/1 24/2/2 1/3/3
f 1/3/3 24/2/2 17/4/4
f 3/5/5 23/6/6 2/1/1
f 2/1/1 23/6/6 24/2/2
f 4/7/7 22/8/8 3/5/5
f 3/5/5 22/8/8 23/6/6
f 4/7/7 5/9/9 22/8/8
f 22/8/8 5/9/9 21/10/10
f 5/11/9 6/12/11 21/13/10
f 21/13/10 6/12/11 20/14/12
f 6/12/11 7/15/13 20/14/12
f 20/14/12 7/15/13 19/16/14
f 7/15/13 8/17/15 19/16/14
f 19/16/14 8/17/15 18/18/16
f 1/3/3 17/4/4 8/17/15
f 8/17/15 17/4/4 18/18/16
f 25/19/17 26/20/18 40/21/19
f 40/21/19 26/20/18 39/22/20
f 26/20/18 25/19/17 27/23/21
f 27/23/21 25/19/17 28/24/22
f 28/24/22 30/25/23 27/23/21
f 27/23/21 30/25/23 29/26/24
f 30/25/23 32/27/25 29/26/24
f 29/26/24 32/27/25 31/28/26
f 32/27/25 34/29/27 31/28/26
f 31/28/26 34/29/27 33/30/28
f 34/31/27 36/32/29 33/33/28
f 33/33/28 36/32/29 35/34/30
f 35/34/30 36/32/29 37/35/31
f 37/35/31 36/32/29 38/36/32
f 37/35/31 38/36/32 39/22/20
f 39/22/20 38/36/32 40/21/19
f 17/4/4 26/20/18 18/18/16
f 18/18/16 26/20/18 27/23/21
f 19/16/14 18/18/16 29/26/24
f 29/26/24 18/18/16 27/23/21
f 20/14/12 19/16/14 31/28/26
f 31/28/26 19/16/14 29/26/24
f 21/13/10 20/14/12 33/30/28
f 33/30/28 20/14/12 31/28/26
f 22/8/8 21/10/10 35/34/30
f 35/34/30 21/10/10 33/33/28
f 22/8/8 35/34/30 23/6/6
f 23/6/6 35/34/30 37/35/31
f 23/6/6 37/35/31 24/2/2
f 24/2/2 37/35/31 39/22/20
f 24/2/2 39/22/20 17/4/4
f 17/4/4 39/22/20 26/20/18
f 28/24/22 25/19/17 16/37/33
f 16/37/33 25/19/17 9/38/34
f 28/24/22 16/37/33 30/25/23
f 30/25/23 16/37/33 15/39/35
f 30/25/23 15/39/35 32/27/25
f 32/27/25 15/39/35 14/40/36
f 32/27/25 14/40/36 34/29/27
f 34/29/27 14/40/36 13/41/37
f 34/31/27 13/42/37 36/32/29
f 36/32/29 13/42/37 12/43/38
f 38/36/32 36/32/29 11/44/39
f 11/44/39 36/32/29 12/43/38
f 40/21/19 38/36/32 10/45/40
f 10/45/40 38/36/32 11/44/39
f 25/19/17 40/21/19 9/38/34
f 9/38/34 40/21/19 10/45/40
s 5
f 42/46/41 50/47/42 41/48/43
f 41/48/43 50/47/42 49/49/44
f 43/50/45 51/51/46 42/46/41
f 42/46/41 51/51/46 50/47/42
f 43/50/45 44/52/47 51/51/46
f 51/51/46 44/52/47 52/53/48
f 45/54/49 53/55/50 44/52/47
f 44/52/47 53/55/50 52/53/48
f 46/56/51 54/57/52 45/54/49
f 45/54/49 54/57/52 53/55/50
f 46/56/51 47/58/53 54/57/52
f 54/57/52 47/58/53 55/59/54
f 47/58/53 48/60/55 55/59/54
f 55/59/54 48/60/55 56/61/56
f 41/48/43 49/49/44 48/60/55
f 48/60/55 49/49/44 56/61/56
f 58/62/57 66/63/58 57/64/59
f 57/64/59 66/63/58 65/65/60
f 58/62/57 59/66/61 66/63/58
f 66/63/58 59/66/61 67/67/62
f 60/68/63 68/69/64 59/66/61
f 59/66/61 68/69/64 67/67/62
f 60/68/63 61/70/65 68/69/64
f 68/69/64 61/70/65 69/71/66
f 62/72/67 70/73/68 61/70/65
f 61/70/65 70/73/68 69/71/66
f 63/74/69 71/75/70 62/72/67
f 62/72/67 71/75/70 70/73/68
f 64/76/71 72/77/72 63/74/69
f 63/74/69 72/77/72 71/75/70
f 57/64/59 65/65/60 64/76/71
f 64/76/71 65/65/60 72/77/72
f 42/46/41 41/48/43 73/78/73
f 43/50/45 42/46/41 73/78/73
f 44/52/47 43/50/45 73/78/73
f 45/54/49 44/52/47 73/78/73
f 46/56/51 45/54/49 73/78/73
f 47/58/53 46/56/51 73/78/73
f 48/60/55 47/58/53 73/78/73
f 41/48/43 48/60/55 73/78/73
f 65/65/60 66/63/58 74/79/74
f 66/63/58 67/67/62 74/79/74
f 67/67/62 68/69/64 74/79/74
f 68/69/64 69/71/66 74/79/74
f 69/71/66 70/73/68 74/79/74
f 70/73/68 71/75/70 74/79/74
f 71/75/70 72/77/72 74/79/74
f 72/77/72 65/65/60 74/79/74
f 75/80/75 76/81/76 89/82/77
f 89/82/77 76/81/76 90/83/78
f 75/80/75 77/84/79 76/81/76
f 76/81/76 77/84/79 78/85/80
f 77/84/79 79/86/81 78/85/80
f 78/85/80 79/86/81 80/87/82
f 80/87/82 79/86/81 82/88/83
f 82/88/83 79/86/81 81/89/84
f 81/89/84 83/90/85 82/88/83
f 82/88/83 83/90/85 84/91/86
f 83/90/85 85/92/87 84/91/86
f 84/91/86 85/92/87 86/93/88
f 86/93/88 85/92/87 88/94/89
f 88/94/89 85/92/87 87/95/90
f 88/94/89 87/95/90 90/83/78
f 90/83/78 87/95/90 89/82/77
f 78/85/80 58/62/57 76/81/76
f 76/81/76 58/62/57 57/64/59
f 80/87/82 59/66/61 78/85/80
f 78/85/80 59/66/61 58/62/57
f 80/87/82 82/88/83 59/66/61
f 59/66/61 82/88/83 60/68/63
f 82/88/83 84/91/86 60/68/63
f 60/68/63 84/91/86 61/70/65
f 84/91/86 86/93/88 61/70/65
f 61/70/65 86/93/88 62/72/67
f 88/94/89 63/74/69 86/93/88
f 86/93/88 63/74/69 62/72/67
f 88/94/89 90/83/78 63/74/69
f 63/74/69 90/83/78 64/76/71
f 90/83/78 76/81/76 64/76/71
f 64/76/71 76/81/76 57/64/59
f 92/96/91 106/97/92 91/98/93
f 91/98/93 106/97/92 105/99/94
f 92/96/91 91/98/93 94/100/95
f 94/100/95 91/98/93 93/101/96
f 94/100/95 93/101/96 96/102/97
f 96/102/97 93/101/96 95/103/98
f 95/103/98 97/104/99 96/102/97
f 96/102/97 97/104/99 98/105/100
f 97/104/99 99/106/101 98/105/100
f 98/105/100 99/106/101 100/107/102
f 99/106/101 101/108/103 100/107/102
f 100/107/102 101/108/103 102/109/104
f 102/109/104 101/108/103 104/110/105
f 104/110/105 101/108/103 103/111/106
f 104/110/105 103/111/106 106/97/92
f 106/97/92 103/111/106 105/99/94
f 49/49/44 50/47/42 91/98/93
f 91/98/93 50/47/42 93/101/96
f 50/47/42 51/51/46 93/101/96
f 93/101/96 51/51/46 95/103/98
f 52/53/48 97/104/99 51/51/46
f 51/51/46 97/104/99 95/103/98
f 53/55/50 99/106/101 52/53/48
f 52/53/48 99/106/101 97/104/99
f 54/57/52 101/108/103 53/55/50
f 53/55/50 101/108/103 99/106/101
f 54/57/52 55/59/54 101/108/103
f 101/108/103 55/59/54 103/111/106
f 55/59/54 56/61/56 103/111/106
f 103/111/106 56/61/56 105/99/94
f 49/49/44 91/98/93 56/61/56
f 56/61/56 91/98/93 105/99/94
f 92/112/91 94/113/95 75/80/75
f 75/80/75 94/113/95 77/84/79
f 96/114/97 79/86/81 94/113/95
f 94/113/95 79/86/81 77/84/79
f 98/115/100 81/89/84 96/114/97
f 96/114/97 81/89/84 79/86/81
f 100/116/102 83/90/85 98/115/100
f 98/115/100 83/90/85 81/89/84
f 102/117/104 85/92/87 100/116/102
f 100/116/102 85/92/87 83/90/85
f 102/117/104 104/118/105 85/92/87
f 85/92/87 104/118/105 87/95/90
f 104/118/105 106/119/92 87/95/90
f 87/95/90 106/119/92 89/82/77
f 106/119/92 92/112/91 89/82/77
f 89/82/77 92/112/91 75/80/75
