# This file uses centimeters as units for non-parametric coordinates.

v 0.014437 0.000000 -0.003218
v 0.011327 0.000000 -0.010727
v 0.003818 0.000000 -0.013837
v -0.003690 0.000000 -0.010727
v -0.006800 0.000000 -0.003218
v -0.003690 0.000000 0.004290
v 0.003818 0.000000 0.007400
v 0.011327 0.000000 0.004290
v 0.025545 0.000000 -0.003218
v 0.019181 0.000000 -0.018582
v 0.003818 0.000000 -0.024945
v -0.011545 0.000000 -0.018582
v -0.017909 0.000000 -0.003218
v -0.011545 0.000000 0.012145
v 0.003818 0.000000 0.018509
v 0.019181 0.000000 0.012145
v 0.129745 0.184608 -0.002630
v 0.081743 0.163934 -0.085565
v 0.003818 0.174634 -0.133743
v -0.083203 0.183565 -0.089869
v -0.126707 0.177300 -0.003218
v -0.088477 0.173304 0.089077
v 0.003818 0.185361 0.127306
v 0.096113 0.174879 0.089077
v 0.037638 0.116743 -0.003218
v 0.026137 0.116743 -0.033134
v 0.003818 0.116743 -0.040387
v -0.026098 0.116743 -0.033134
v -0.032675 0.116743 -0.003218
v -0.016699 0.116743 0.022438
v 0.010039 0.116743 0.027923
v 0.022069 0.116743 0.019790
v 0.098880 0.184042 -0.003125
v 0.066438 0.174035 -0.003218
v 0.049436 0.169925 -0.048704
v 0.070583 0.170560 -0.068979
v 0.003818 0.173826 -0.065956
v 0.003384 0.179799 -0.098179
v -0.040461 0.174035 -0.047497
v -0.063296 0.185361 -0.070333
v -0.058802 0.174035 -0.003218
v -0.091096 0.185361 -0.003218
v -0.040461 0.174035 0.041061
v -0.063296 0.185361 0.063896
v 0.003818 0.174035 0.059402
v 0.003818 0.185361 0.091696
v 0.048097 0.174035 0.041061
v 0.071262 0.179770 0.064225
v 0.023702 0.127305 -0.003218
v 0.035337 0.148547 -0.003218
v 0.017878 0.127305 -0.017278
v 0.026106 0.148547 -0.025506
v 0.003818 0.127305 -0.023102
v 0.003818 0.148547 -0.034737
v -0.010242 0.127305 -0.017278
v -0.018469 0.148547 -0.025506
v -0.016066 0.127305 -0.003218
v -0.027701 0.148547 -0.003218
v -0.010242 0.127305 0.010842
v -0.018469 0.148547 0.019069
v 0.003818 0.127305 0.016666
v 0.003818 0.148547 0.028301
v 0.017878 0.127305 0.010842
v 0.026106 0.148547 0.019069
v 0.055812 0.142720 -0.003218
v 0.077680 0.156259 -0.003218
v 0.041767 0.142720 0.032080
v 0.056047 0.156259 0.049010
v 0.045429 0.142720 -0.044829
v 0.056047 0.156259 -0.055447
v 0.003818 0.142720 -0.053823
v 0.003818 0.156259 -0.071968
v -0.037793 0.142720 -0.044829
v -0.048410 0.156259 -0.055447
v -0.055029 0.142720 -0.003218
v -0.070044 0.156259 -0.003218
v -0.037793 0.142720 0.038393
v -0.048410 0.156259 0.049010
v 0.003818 0.142720 0.055629
v 0.003818 0.156259 0.070644
vt 0.717541 0.116858
vt 0.692876 0.141406
vt 0.632501 0.037068
vt 0.620540 0.047168
vt 0.730904 0.096855
vt 0.643123 0.025659
vt 0.744663 0.072672
vt 0.652361 0.013234
vt 0.566660 0.186380
vt 0.549693 0.078383
vt 0.593723 0.184811
vt 0.564764 0.074993
vt 0.624452 0.178739
vt 0.579517 0.069968
vt 0.652967 0.167607
vt 0.593819 0.063593
vt 0.667066 0.159166
vt 0.607498 0.055919
vt 0.959540 0.385158
vt 0.937153 0.385664
vt 0.937183 0.335674
vt 0.922397 0.350746
vt 0.936521 0.434167
vt 0.923168 0.421341
vt 0.887319 0.435658
vt 0.885968 0.456863
vt 0.852576 0.421100
vt 0.836179 0.435850
vt 0.838026 0.386234
vt 0.815960 0.385454
vt 0.852225 0.351187
vt 0.837087 0.335115
vt 0.887203 0.336515
vt 0.887044 0.314006
vt 0.943721 0.446322
vt 0.980522 0.384310
vt 0.886626 0.481573
vt 0.822726 0.448911
vt 0.791285 0.384748
vt 0.818621 0.317042
vt 0.887115 0.290151
vt 0.954301 0.318330
vt 0.897866 0.385679
vt 0.913303 0.385787
vt 0.897966 0.394429
vt 0.906838 0.405130
vt 0.905799 0.367578
vt 0.895058 0.376978
vt 0.889110 0.397012
vt 0.888233 0.412008
vt 0.880446 0.394991
vt 0.869552 0.404781
vt 0.876173 0.387167
vt 0.861512 0.386508
vt 0.878524 0.378624
vt 0.868780 0.367835
vt 0.886511 0.374723
vt 0.887122 0.360052
vt 0.741046 0.481667
vt 0.733738 0.481036
vt 0.756281 0.367934
vt 0.742593 0.363499
vt 0.748272 0.482639
vt 0.767472 0.372844
vt 0.755426 0.483899
vt 0.770542 0.381854
vt 0.704494 0.482583
vt 0.697296 0.483854
vt 0.685479 0.371873
vt 0.680367 0.378676
vt 0.711734 0.481609
vt 0.697238 0.366972
vt 0.719034 0.481014
vt 0.711385 0.362896
vt 0.726418 0.480805
vt 0.727070 0.361534
vt 0.909423 0.144243
vt 0.929700 0.145162
vt 0.896974 0.177224
vt 0.908676 0.194614
vt 0.909069 0.095604
vt 0.897025 0.106359
vt 0.861080 0.199385
vt 0.859226 0.215524
vt 0.859426 0.078353
vt 0.859059 0.096359
vt 0.821268 0.106891
vt 0.810230 0.095062
vt 0.789409 0.144306
vt 0.805548 0.146232
vt 0.809518 0.194444
vt 0.822254 0.184228
vt 0.883695 0.144487
vt 0.871085 0.160253
vt 0.876944 0.121919
vt 0.859336 0.122577
vt 0.837069 0.123792
vt 0.833433 0.146092
vt 0.845167 0.165268
vt 0.865515 0.170084
vt 0.930079 0.071122
vt 0.977892 0.147378
vt 0.859142 0.024785
vt 0.777814 0.063712
vt 0.739026 0.144659
vt 0.776003 0.228299
vt 0.859528 0.268298
vt 0.942951 0.229814
vn 0.910285 -0.249872 -0.330069
vn 0.911708 -0.212607 -0.351550
vn 0.922212 -0.096525 -0.374443
vn 0.919678 -0.095269 -0.380942
vn 0.303119 -0.194993 -0.932790
vn 0.367368 -0.134784 -0.920258
vn -0.224584 -0.239395 -0.944591
vn -0.342723 -0.128711 -0.930578
vn -0.936826 -0.277479 -0.212987
vn -0.917634 -0.116068 -0.380099
vn -0.819373 -0.275996 0.502449
vn -0.921324 -0.074318 0.381627
vn -0.194456 -0.251883 0.948020
vn -0.343940 -0.091898 0.934484
vn 0.546736 -0.216681 0.808782
vn 0.393762 -0.092757 0.914521
vn -0.117243 0.988934 -0.090902
vn -0.400925 0.914590 -0.052770
vn 0.029576 0.999364 0.019921
vn -0.274208 0.926228 -0.258674
vn 0.084952 0.987691 -0.131338
vn -0.188376 0.964449 0.185342
vn 0.059964 0.928103 0.367464
vn 0.113930 0.992657 -0.040641
vn 0.329418 0.897261 0.293951
vn 0.094113 0.994717 0.040988
vn 0.449436 0.893301 0.004604
vn -0.040393 0.999000 0.019152
vn 0.321055 0.893301 -0.314544
vn -0.105812 0.992074 0.067773
vn 0.017454 0.902621 -0.430083
vn 0.041769 0.991460 -0.123545
vn 0.170810 0.961622 -0.214727
vn 0.000562 0.997656 -0.068424
vn 0.119501 0.982731 -0.141280
vn -0.051183 0.995341 -0.081710
vn -0.235034 0.971248 0.037904
vn -0.256176 0.946350 0.196965
vn 0.005060 0.998211 0.059575
vn 0.102523 0.990431 0.092393
vn -0.915298 0.135984 0.379128
vn -0.692693 0.721230 0.001859
vn -0.912976 0.153186 0.378166
vn -0.472025 0.751420 0.461042
vn -0.523059 0.710602 -0.470589
vn -0.915298 0.135984 -0.379128
vn -0.378167 0.153186 0.912975
vn 0.023864 0.730969 0.681994
vn 0.378164 0.153186 0.912976
vn 0.523058 0.710601 0.470591
vn 0.912976 0.153186 0.378166
vn 0.702616 0.710601 -0.037101
vn 0.912976 0.153186 -0.378166
vn 0.470591 0.710601 -0.523058
vn 0.378164 0.153186 -0.912976
vn -0.037100 0.710602 -0.702615
vn -0.921797 0.067089 0.381823
vn -0.921797 0.067089 0.381823
vn -0.381825 0.067089 0.921797
vn 0.381819 0.067089 0.921799
vn 0.921800 0.067090 0.381817
vn 0.921800 0.067089 -0.381817
vn 0.381817 0.067089 -0.921800
vn -0.381823 0.067089 -0.921797
vn 0.654434 -0.709869 0.260388
vn 0.472513 -0.880647 0.034521
vn 0.605384 -0.747390 0.273714
vn 0.318692 -0.925438 0.204941
vn 0.206431 -0.954108 -0.216942
vn 0.727936 -0.661149 -0.181637
vn 0.332092 -0.701535 0.630527
vn 0.008837 -0.889508 0.456834
vn -0.086082 -0.933737 -0.347454
vn 0.169963 -0.663863 -0.728285
vn -0.194821 -0.619780 -0.760209
vn -0.355196 -0.851713 -0.385255
vn -0.396813 -0.916577 -0.049263
vn -0.715198 -0.646869 -0.264674
vn -0.251110 -0.933355 0.256501
vn -0.661532 -0.687076 0.300502
s 1
g mushroom4:mushroom4
f 26/1/1 25/2/2 10/3/3
f 10/3/3 25/2/2 9/4/4
f 27/5/5 26/1/1 11/6/6
f 11/6/6 26/1/1 10/3/3
f 28/7/7 27/5/5 12/8/8
f 12/8/8 27/5/5 11/6/6
f 28/9/7 12/10/8 29/11/9
f 29/11/9 12/10/8 13/12/10
f 29/11/9 13/12/10 30/13/11
f 30/13/11 13/12/10 14/14/12
f 31/15/13 30/13/11 15/16/14
f 15/16/14 30/13/11 14/14/12
f 32/17/15 31/15/13 16/18/16
f 16/18/16 31/15/13 15/16/14
f 25/2/2 32/17/15 9/4/4
f 9/4/4 32/17/15 16/18/16
f 33/19/17 34/20/18 48/21/19
f 48/21/19 34/20/18 47/22/20
f 33/19/17 36/23/21 34/20/18
f 34/20/18 36/23/21 35/24/22
f 35/24/22 36/23/21 37/25/23
f 37/25/23 36/23/21 38/26/24
f 37/25/23 38/26/24 39/27/25
f 39/27/25 38/26/24 40/28/26
f 39/27/25 40/28/26 41/29/27
f 41/29/27 40/28/26 42/30/28
f 41/29/27 42/30/28 43/31/29
f 43/31/29 42/30/28 44/32/30
f 43/31/29 44/32/30 45/33/31
f 45/33/31 44/32/30 46/34/32
f 46/34/32 48/21/19 45/33/31
f 45/33/31 48/21/19 47/22/20
f 36/23/21 33/19/17 18/35/33
f 18/35/33 33/19/17 17/36/34
f 36/23/21 18/35/33 38/26/24
f 38/26/24 18/35/33 19/37/35
f 40/28/26 38/26/24 20/38/36
f 20/38/36 38/26/24 19/37/35
f 40/28/26 20/38/36 42/30/28
f 42/30/28 20/38/36 21/39/37
f 42/30/28 21/39/37 44/32/30
f 44/32/30 21/39/37 22/40/38
f 46/34/32 44/32/30 23/41/39
f 23/41/39 44/32/30 22/40/38
f 46/34/32 23/41/39 48/21/19
f 48/21/19 23/41/39 24/42/40
f 33/19/17 48/21/19 17/36/34
f 17/36/34 48/21/19 24/42/40
f 49/43/41 50/44/42 51/45/43
f 51/45/43 50/44/42 52/46/44
f 50/44/42 49/43/41 64/47/45
f 64/47/45 49/43/41 63/48/46
f 51/45/43 52/46/44 53/49/47
f 53/49/47 52/46/44 54/50/48
f 53/49/47 54/50/48 55/51/49
f 55/51/49 54/50/48 56/52/50
f 55/51/49 56/52/50 57/53/51
f 57/53/51 56/52/50 58/54/52
f 57/53/51 58/54/52 59/55/53
f 59/55/53 58/54/52 60/56/54
f 59/55/53 60/56/54 61/57/55
f 61/57/55 60/56/54 62/58/56
f 61/57/55 62/58/56 63/48/46
f 63/48/46 62/58/56 64/47/45
f 2/59/57 1/60/58 51/61/43
f 51/61/43 1/60/58 49/62/41
f 3/63/59 2/59/57 53/64/47
f 53/64/47 2/59/57 51/61/43
f 4/65/60 3/63/59 55/66/49
f 55/66/49 3/63/59 53/64/47
f 5/67/61 4/68/60 57/69/51
f 57/69/51 4/68/60 55/70/49
f 6/71/62 5/67/61 59/72/53
f 59/72/53 5/67/61 57/69/51
f 7/73/63 6/71/62 61/74/55
f 61/74/55 6/71/62 59/72/53
f 8/75/64 7/73/63 63/76/46
f 63/76/46 7/73/63 61/74/55
f 1/60/58 8/75/64 49/62/41
f 49/62/41 8/75/64 63/76/46
f 52/46/44 50/44/42 35/24/22
f 35/24/22 50/44/42 34/20/18
f 52/46/44 35/24/22 54/50/48
f 54/50/48 35/24/22 37/25/23
f 56/52/50 54/50/48 39/27/25
f 39/27/25 54/50/48 37/25/23
f 58/54/52 56/52/50 41/29/27
f 41/29/27 56/52/50 39/27/25
f 60/56/54 58/54/52 43/31/29
f 43/31/29 58/54/52 41/29/27
f 62/58/56 60/56/54 45/33/31
f 45/33/31 60/56/54 43/31/29
f 64/47/45 62/58/56 47/22/20
f 47/22/20 62/58/56 45/33/31
f 50/44/42 64/47/45 34/20/18
f 34/20/18 64/47/45 47/22/20
f 65/77/65 66/78/66 67/79/67
f 67/79/67 66/78/66 68/80/68
f 66/78/66 65/77/65 70/81/69
f 70/81/69 65/77/65 69/82/70
f 67/79/67 68/80/68 79/83/71
f 79/83/71 68/80/68 80/84/72
f 70/81/69 69/82/70 72/85/73
f 72/85/73 69/82/70 71/86/74
f 71/86/74 73/87/75 72/85/73
f 72/85/73 73/87/75 74/88/76
f 74/88/76 73/87/75 76/89/77
f 76/89/77 73/87/75 75/90/78
f 76/89/77 75/90/78 78/91/79
f 78/91/79 75/90/78 77/92/80
f 78/91/79 77/92/80 80/84/72
f 80/84/72 77/92/80 79/83/71
f 65/77/65 67/79/67 25/93/2
f 25/93/2 67/79/67 32/94/15
f 25/93/2 26/95/1 65/77/65
f 65/77/65 26/95/1 69/82/70
f 69/82/70 26/95/1 71/86/74
f 71/86/74 26/95/1 27/96/5
f 27/96/5 28/97/7 71/86/74
f 71/86/74 28/97/7 73/87/75
f 73/87/75 28/97/7 75/90/78
f 75/90/78 28/97/7 29/98/9
f 75/90/78 29/98/9 77/92/80
f 77/92/80 29/98/9 30/99/11
f 77/92/80 30/99/11 79/83/71
f 79/83/71 30/99/11 31/100/13
f 79/83/71 31/100/13 67/79/67
f 67/79/67 31/100/13 32/94/15
f 70/81/69 18/101/33 66/78/66
f 66/78/66 18/101/33 17/102/34
f 70/81/69 72/85/73 18/101/33
f 18/101/33 72/85/73 19/103/35
f 74/88/76 20/104/36 72/85/73
f 72/85/73 20/104/36 19/103/35
f 74/88/76 76/89/77 20/104/36
f 20/104/36 76/89/77 21/105/37
f 78/91/79 22/106/38 76/89/77
f 76/89/77 22/106/38 21/105/37
f 78/91/79 80/84/72 22/106/38
f 22/106/38 80/84/72 23/107/39
f 68/80/68 24/108/40 80/84/72
f 80/84/72 24/108/40 23/107/39
f 66/78/66 17/102/34 68/80/68
f 68/80/68 17/102/34 24/108/40
